<svg width="43" height="37" viewBox="0 0 43 37" fill="none" xmlns="http://www.w3.org/2000/svg">
<mask id="mask0" mask-type="alpha" maskUnits="userSpaceOnUse" x="17" y="0" width="26" height="37">
<path fill-rule="evenodd" clip-rule="evenodd" d="M17.764 0.000244141H42.5102V36.9998H17.764V0.000244141Z" fill="white"/>
</mask>
<g mask="url(#mask0)">
<path fill-rule="evenodd" clip-rule="evenodd" d="M32.6107 23.4501C32.4835 23.6354 32.3007 23.6783 32.2035 23.6877C32.1052 23.6972 31.9182 23.6898 31.7557 23.5328L30.2853 22.1017L34.0939 18.8625L35.0899 19.832L32.6107 23.4501ZM29.3561 21.2485L25.821 18.2398V17.0547C26.848 17.6902 28.0641 18.0545 29.3561 18.0545C30.6471 18.0545 31.8643 17.6902 32.8923 17.0547V18.2398L29.3561 21.2485ZM28.7505 24.3531L28.789 23.5004L29.3554 22.9487L29.9207 23.5004L29.9603 24.3531H28.7505ZM26.9517 23.5328C26.7903 23.6898 26.6022 23.6972 26.505 23.6877C26.4067 23.6783 26.2239 23.6354 26.0978 23.4501L23.6174 19.832L24.6156 18.8625L28.4222 22.1017L26.9517 23.5328ZM24.1243 12.5819C24.011 11.9872 23.4446 11.5549 22.8333 11.5988C22.7853 11.602 22.735 11.5988 22.6848 11.5884C22.4315 11.5392 22.2402 11.2785 22.2402 10.9843V10.5394C22.2402 10.2526 22.4369 9.99294 22.6901 9.95001C22.9028 9.91337 23.1058 9.9898 23.2362 10.1531C23.3527 10.3018 23.5077 10.4075 23.6861 10.4598C23.948 10.5363 24.2354 10.4912 24.4566 10.3395C24.8552 10.0662 25.2058 9.73226 25.5018 9.34597C25.7112 9.07169 25.6525 8.6833 25.3703 8.47916C25.0882 8.27502 24.6885 8.33259 24.4791 8.60688C24.3316 8.7995 24.166 8.97328 23.9832 9.12822C23.7802 8.96072 23.5451 8.83928 23.2918 8.76914C23.1283 8.15986 22.8365 6.85336 22.8365 5.27782C22.8365 4.3283 23.1379 3.66144 23.7299 3.29609C24.1937 3.01029 24.6832 2.99877 24.6832 2.99773C24.8456 2.99773 25.0049 2.93596 25.1224 2.82709C25.1384 2.81348 26.7051 1.39915 29.3864 1.25887C31.8421 1.12906 33.739 1.73206 34.8686 3.00191C36.0088 4.28224 36.3882 6.24618 35.9757 8.70528C35.8058 8.699 35.6188 8.71156 35.4339 8.74192L34.8344 7.34435C34.7125 7.05855 34.392 6.90466 34.0852 6.98317C34.0254 6.99783 28.1414 8.44775 25.6738 5.46102C25.4537 5.19511 25.0529 5.15219 24.7783 5.3668C24.5037 5.58036 24.4598 5.97085 24.68 6.2378C27.2009 9.28734 32.1991 8.62363 33.864 8.30014L34.3257 9.38156C34.5255 9.84637 35.0353 10.1008 35.5365 9.98456C35.7427 9.93745 35.9394 9.93641 36.0142 9.95106C36.2717 10.0003 36.4651 10.2505 36.4651 10.5321V10.9843C36.4651 11.2785 36.2749 11.5392 36.0206 11.5884C35.9714 11.5988 35.9212 11.602 35.8731 11.5988C35.2608 11.5559 34.6944 11.9872 34.5832 12.5819C34.1184 15.0357 31.9201 16.8175 29.3532 16.8175C26.7863 16.8175 24.587 15.0357 24.1243 12.5819ZM36.3422 19.2962L34.5735 17.5762C34.4592 17.4663 34.3138 17.4066 34.1642 17.3961V16.0279C34.9978 15.1632 35.592 14.0692 35.8313 12.835C35.9788 12.8423 36.1295 12.8297 36.278 12.8015C37.1266 12.6319 37.741 11.8676 37.741 10.982V10.5308C37.741 10.0178 37.5284 9.54884 37.18 9.2128C37.7432 6.23656 37.2794 3.81202 35.8345 2.18833C34.4357 0.618029 32.1829 -0.131526 29.32 0.0192223C26.674 0.157409 24.9674 1.34141 24.4255 1.77377C24.1295 1.80832 23.6251 1.90986 23.1143 2.20717C22.4068 2.62068 21.5626 3.48854 21.5626 5.27554C21.5626 6.83432 21.8191 8.13557 22.005 8.87466C21.3831 9.16883 20.9674 9.80742 20.9674 10.5371V10.982C20.9674 11.8676 21.5829 12.6319 22.4304 12.8004C22.5778 12.8297 22.7285 12.8423 22.8771 12.835C23.1164 14.0692 23.7106 15.1632 24.5431 16.0279V17.3961C24.3946 17.4066 24.2481 17.4663 24.1338 17.5762L22.3652 19.2962L18.8952 20.5975C18.5949 20.7105 18.3085 20.856 18.0424 21.0319C17.7528 21.2245 17.6759 21.6098 17.8747 21.8924C17.9976 22.0683 18.1985 22.1636 18.4015 22.1636C18.5244 22.1636 18.6505 22.129 18.7595 22.0568C18.9444 21.9343 19.1442 21.8328 19.3537 21.7542L22.5736 20.5462L25.0357 24.138C25.3414 24.5829 25.8308 24.8676 26.378 24.921C26.44 24.9273 26.4998 24.9294 26.5607 24.9294C26.8781 24.9294 27.1848 24.8488 27.4573 24.6991L26.9294 36.3528C26.9134 36.6951 27.1859 36.9841 27.5375 36.9998C27.5471 36.9998 27.5567 36.9998 27.5653 36.9998C27.9051 36.9998 28.1872 36.7401 28.2022 36.4072L28.6927 25.59H30.0146L30.5051 36.4072C30.5212 36.7401 30.8033 36.9998 31.1421 36.9998C31.1517 36.9998 31.1613 36.9998 31.1699 36.9998C31.5214 36.9841 31.7939 36.6951 31.779 36.3528L31.2511 24.6991C31.5225 24.8488 31.8303 24.9294 32.1466 24.9294C32.2075 24.9294 32.2695 24.9273 32.3293 24.921C32.8776 24.8676 33.3659 24.5829 33.6716 24.138L36.1338 20.5462L39.3547 21.7542C39.8046 21.9238 40.1947 22.1939 40.5003 22.531L38.2967 24.6729C37.5006 25.4465 37.0624 26.4767 37.0624 27.5706V36.3811C37.0624 36.7223 37.3488 36.9998 37.7004 36.9998C38.052 36.9998 38.3363 36.7223 38.3363 36.3811V27.5706C38.3363 26.8075 38.643 26.0893 39.1976 25.5491L41.1319 23.669C41.2088 23.9464 41.2452 24.2374 41.2323 24.5347L40.7397 36.3559C40.7258 36.6972 40.9994 36.9861 41.351 36.9998C41.3595 36.9998 41.3681 36.9998 41.3766 36.9998C41.7175 36.9998 41.9986 36.7391 42.0135 36.4051L42.5073 24.585C42.5789 22.8315 41.4963 21.2298 39.8121 20.5975L36.3422 19.2962Z" fill="#1B344C"/>
<path fill-rule="evenodd" clip-rule="evenodd" d="M23.6533 26.7931C23.2782 26.7931 22.9726 27.0794 22.9726 27.4317C22.9726 27.7851 23.2782 28.0714 23.6533 28.0714H26.2C26.5761 28.0714 26.8807 27.7851 26.8807 27.4317C26.8807 27.0794 26.5761 26.7931 26.2 26.7931H23.6533Z" fill="#1B344C"/>
</g>
<mask id="mask1" mask-type="alpha" maskUnits="userSpaceOnUse" x="0" y="0" width="23" height="37">
<path fill-rule="evenodd" clip-rule="evenodd" d="M0.83197 0H22.9736V37H0.83197V0Z" fill="white"/>
</mask>
<g mask="url(#mask1)">
<path fill-rule="evenodd" clip-rule="evenodd" d="M14.476 26.1646L12.8154 24.7502L15.3865 22.1852L16.3419 23.14L14.476 26.1646ZM11.9032 23.9104L9.62054 21.6314V20.35C10.3333 20.6212 11.1028 20.7688 11.9032 20.7688C12.7026 20.7688 13.4731 20.6212 14.1859 20.35V21.6314L11.9032 23.9104ZM9.32984 26.1646L7.46394 23.14L8.41933 22.1852L10.9884 24.7502L9.32984 26.1646ZM6.80953 15.2947C6.70053 14.699 6.14696 14.2677 5.55279 14.3117C5.50042 14.3148 5.44592 14.3106 5.39035 14.2981C5.15417 14.2415 4.97571 13.983 4.97571 13.6972V13.2523C4.97571 12.9644 5.16807 12.7058 5.41386 12.6629C5.62118 12.6262 5.81888 12.7027 5.94498 12.8649C6.05826 13.0136 6.21108 13.1204 6.38421 13.1717C6.63855 13.2491 6.91854 13.2041 7.13441 13.0523C7.51592 12.7822 7.85468 12.4546 8.13788 12.0756C8.34413 11.8024 8.28856 11.414 8.01498 11.2088C7.74034 11.0036 7.35134 11.0591 7.14616 11.3323C7.0051 11.5197 6.84587 11.6893 6.67168 11.8401C6.40665 11.6139 6.08177 11.4716 5.73553 11.4286C5.61691 10.9628 5.55599 10.4844 5.55599 10.0049C5.55599 6.67066 8.40291 3.95825 11.9028 3.95825C15.4016 3.95825 18.2485 6.67066 18.2485 10.0049C18.2485 10.4844 18.1887 10.9607 18.069 11.4265C17.9065 11.4391 17.7409 11.4653 17.587 11.5061L17.1211 11.123C16.886 10.9303 16.591 10.834 16.2918 10.8518C15.3802 10.9052 10.7091 11.0287 8.31207 8.16453C8.09193 7.90282 7.7008 7.86722 7.43791 8.08602C7.17502 8.30586 7.14082 8.69633 7.35989 8.9591C8.54183 10.3724 10.2752 11.3271 12.5119 11.7982C14.2261 12.1593 15.7478 12.1237 16.3441 12.0903L17.073 12.687C17.2728 12.8524 17.5539 12.8754 17.7783 12.7445C17.883 12.687 18.2357 12.6325 18.3896 12.6639C18.6396 12.7131 18.8288 12.9633 18.8288 13.2449V13.6972C18.8288 13.983 18.6503 14.2415 18.4152 14.2981C18.3596 14.3106 18.3051 14.3148 18.2517 14.3117C17.6586 14.2677 17.105 14.699 16.995 15.2947C16.545 17.7485 14.4024 19.5303 11.9028 19.5303C9.40318 19.5303 7.26051 17.7485 6.80953 15.2947ZM11.9032 1.24005C13.223 1.24005 14.3366 2.08336 14.6668 3.22455C13.8097 2.90149 12.8779 2.72318 11.9032 2.72318C10.9286 2.72318 9.99676 2.90149 9.13969 3.22455C9.46884 2.08336 10.5824 1.24005 11.9032 1.24005ZM17.4813 22.5244L15.8248 20.8703C15.7137 20.7593 15.5705 20.7007 15.4262 20.6903V19.7156C16.8411 18.7871 17.8777 17.3099 18.2101 15.5501C18.3725 15.5575 18.5382 15.5418 18.6995 15.503C19.4935 15.3156 20.0695 14.5556 20.0695 13.6972V13.2449C20.0695 12.6179 19.7575 12.0526 19.2745 11.7218C19.4177 11.1596 19.4893 10.5838 19.4893 10.0049C19.4893 7.43798 18.1 5.17675 16.0054 3.87864C15.983 1.73675 14.1513 0 11.9028 0C9.65331 0 7.82162 1.73675 7.79918 3.87864C5.70461 5.17675 4.31535 7.43798 4.31535 10.0049C4.31535 10.5817 4.38802 11.1564 4.52801 11.7165C4.04498 12.0463 3.734 12.6137 3.734 13.2523V13.6972C3.734 14.5556 4.31107 15.3156 5.10402 15.503C5.26752 15.5418 5.43103 15.5575 5.59453 15.5501C5.92796 17.3099 6.96349 18.7871 8.37947 19.7156V20.6903C8.23413 20.7007 8.09093 20.7593 7.98085 20.8703L6.32336 22.5244L3.29371 23.8455C1.7527 24.5166 0.764187 26.0963 0.834719 27.7744L1.20234 36.4068C1.21623 36.7398 1.49088 37.0004 1.82109 37.0004C1.83071 37.0004 1.83926 37.0004 1.84888 36.9994C2.19085 36.9847 2.45695 36.6958 2.44198 36.3535L2.07543 27.721C2.05192 27.1651 2.19726 26.6249 2.46977 26.1612L4.09734 28.1125C4.61244 28.7291 4.89563 29.5111 4.89563 30.313V36.3807C4.89563 36.722 5.17348 37.0004 5.51652 37.0004C5.85956 37.0004 6.13635 36.722 6.13635 36.3807V30.313C6.13635 29.2212 5.75163 28.1586 5.05165 27.319L3.32042 25.2452C3.46683 25.1426 3.62392 25.0536 3.79064 24.9803L6.4313 23.8298L8.29718 26.8542C8.48206 27.1526 8.78662 27.3557 9.13287 27.409C9.19592 27.4195 9.2579 27.4247 9.32096 27.4247C9.60415 27.4247 9.87986 27.3242 10.0989 27.1369L11.2819 26.1298V36.3807C11.2819 36.722 11.5598 37.0004 11.9028 37.0004C12.2448 37.0004 12.5237 36.722 12.5237 36.3807V26.1298L13.7057 27.1379C13.9247 27.3242 14.2005 27.4247 14.4847 27.4247C14.5467 27.4247 14.6098 27.4195 14.6728 27.4101C15.0191 27.3556 15.3236 27.1526 15.5085 26.8542L17.3744 23.8298L20.015 24.9814C20.1818 25.0536 20.3378 25.1436 20.4853 25.2452L18.754 27.319C18.0541 28.1586 17.6683 29.2212 17.6683 30.313V36.3807C17.6683 36.722 17.9461 37.0004 18.2881 37.0004C18.6322 37.0004 18.909 36.722 18.909 36.3807V30.313C18.909 29.5111 19.1932 28.7291 19.7083 28.1125L21.3359 26.1612C21.6084 26.6249 21.7538 27.1651 21.7292 27.721L21.3626 36.3535C21.3487 36.6958 21.6148 36.9847 21.9568 36.9994C21.9664 37.0004 21.975 37.0004 21.9835 37.0004C22.3148 37.0004 22.5895 36.7398 22.6023 36.4068L22.9699 27.7744C23.0415 26.0963 22.053 24.5166 20.5109 23.8455L17.4813 22.5244Z" fill="#1B344C"/>
<path fill-rule="evenodd" clip-rule="evenodd" d="M8.15737 30.6208C7.70853 30.6208 7.34412 30.9069 7.34412 31.259C7.34412 31.6121 7.70853 31.8982 8.15737 31.8982H10.439C10.8878 31.8982 11.2522 31.6121 11.2522 31.259C11.2522 30.9069 10.8878 30.6208 10.439 30.6208H8.15737Z" fill="#1B344C"/>
</g>
</svg>
