<svg width="65" height="65" viewBox="0 0 65 65" fill="none" xmlns="http://www.w3.org/2000/svg">
<circle cx="32.5" cy="32.5" r="32" fill="#FBE5FF" stroke="#9B9B9B" stroke-linecap="square" stroke-dasharray="4 4"/>
<path fill-rule="evenodd" clip-rule="evenodd" d="M35.5527 32.3845C35.7968 32.8637 35.9989 33.3651 36.1531 33.8765C36.2173 34.0906 36.4054 34.2525 36.639 34.2958L39.989 34.9192C40.3196 34.9813 40.5591 35.2531 40.5591 35.5681V37.2698C40.5591 37.5837 40.3196 37.8566 39.989 37.9187L36.639 38.5421C36.4054 38.5854 36.2173 38.7473 36.1531 38.9614C35.9358 39.6836 35.6262 40.3802 35.2314 41.0325C35.1135 41.2266 35.124 41.4651 35.256 41.6492L37.1506 44.296C37.3387 44.5578 37.3001 44.9083 37.0618 45.1313L35.7699 46.3337C35.5316 46.5567 35.1543 46.5911 34.8728 46.4169L32.0309 44.6521C31.8323 44.5289 31.5765 44.5201 31.3674 44.6288C30.6678 44.9971 29.919 45.2855 29.1434 45.4874C28.9145 45.5473 28.7393 45.7214 28.6925 45.9399L28.0232 49.0593C27.9566 49.3665 27.6635 49.5906 27.3259 49.5906H25.499C25.1614 49.5906 24.8682 49.3676 24.8017 49.0593L24.1323 45.9399C24.0856 45.7214 23.9104 45.5473 23.6815 45.4874C22.9059 45.2855 22.1571 44.9971 21.4574 44.6288C21.2495 44.5201 20.9926 44.5289 20.794 44.6521L17.952 46.4169C17.6717 46.5911 17.2944 46.5556 17.055 46.3337L15.7631 45.1302C15.5248 44.9083 15.4874 44.5578 15.6755 44.296L17.5701 41.6492C17.7021 41.4651 17.7126 41.2255 17.5946 41.0325C17.1998 40.3802 16.8903 39.6836 16.673 38.9614C16.6088 38.7473 16.4207 38.5854 16.1871 38.5421L12.837 37.9176C12.5065 37.8566 12.2658 37.5837 12.2658 37.2698V35.5681C12.2658 35.2531 12.5065 34.9813 12.837 34.9192L16.1871 34.2958C16.4207 34.2525 16.6088 34.0894 16.673 33.8765C16.8903 33.1543 17.1998 32.4566 17.5946 31.8054C17.7126 31.6113 17.7021 31.3728 17.5701 31.1887L15.6755 28.5408C15.4874 28.2801 15.5248 27.9285 15.7631 27.7066L17.055 26.503C17.2944 26.2812 17.6717 26.2468 17.952 26.421L20.7951 28.1847C20.9937 28.309 21.2495 28.3178 21.4574 28.208C22.1571 27.8408 22.907 27.5524 23.6815 27.3505C23.9116 27.2906 24.0856 27.1154 24.1323 26.8979L24.8028 23.7786C24.8694 23.4703 25.1614 23.2473 25.499 23.2473H27.327C27.6635 23.2473 27.9566 23.4703 28.0232 23.7786L28.6937 26.8979C28.7404 27.1154 28.9145 27.2906 29.1446 27.3505C29.7064 27.497 30.2589 27.69 30.7846 27.9251C31.0999 28.066 31.4784 27.9429 31.6291 27.6478C31.7809 27.355 31.6466 27.0022 31.3324 26.8613C30.8582 26.6495 30.3641 26.4675 29.8606 26.3189L29.2649 23.5479C29.0815 22.6904 28.2662 22.0681 27.327 22.0681H25.499C24.5599 22.0681 23.7445 22.6904 23.5612 23.5479L22.9654 26.3189C22.3499 26.5008 21.753 26.7316 21.1806 27.0078L18.6541 25.4392C17.8726 24.9545 16.8237 25.051 16.1602 25.67L14.8671 26.8724C14.2037 27.4914 14.0997 28.4687 14.6195 29.1953L16.3051 31.5481C16.0084 32.0805 15.7607 32.6363 15.5657 33.2087L12.5882 33.7633C11.6678 33.9341 10.9996 34.694 10.9996 35.5681V37.2698C10.9996 38.1439 11.6678 38.9026 12.5882 39.0746L15.5657 39.6292C15.7607 40.2016 16.0084 40.7574 16.3051 41.2898L14.6207 43.6415C14.0997 44.3692 14.2037 45.3465 14.8671 45.9643L16.1602 47.1679C16.8248 47.7869 17.8726 47.8834 18.6541 47.3987L21.1806 45.8301C21.753 46.1063 22.3499 46.3371 22.9654 46.519L23.5612 49.29C23.7445 50.1475 24.5599 50.7698 25.499 50.7698H27.327C28.2662 50.7698 29.0815 50.1475 29.2649 49.29L29.8606 46.519C30.4762 46.3371 31.0731 46.1063 31.6443 45.8301L34.172 47.3987C34.9534 47.8834 36.0024 47.7869 36.6658 47.1679L37.9589 45.9643C38.6224 45.3465 38.7263 44.3692 38.2054 43.6415L36.521 41.2898C36.8177 40.7574 37.0653 40.2016 37.2604 39.6292L40.2378 39.0746C41.1583 38.9026 41.8264 38.1439 41.8264 37.2698V35.5681C41.8264 34.694 41.1583 33.9341 40.2378 33.7633L37.2604 33.2087C37.105 32.7539 36.917 32.3079 36.6985 31.8786C36.5479 31.5847 36.1706 31.4593 35.854 31.5991C35.5375 31.7378 35.4031 32.0905 35.5527 32.3845Z" fill="#1B344C"/>
<path fill-rule="evenodd" clip-rule="evenodd" d="M30.2981 31.9511C30.3434 31.8703 30.365 31.7844 30.365 31.7006C30.365 31.5008 30.2438 31.3073 30.0354 31.21C29.0782 30.7659 28.0022 30.532 26.9216 30.532C23.1532 30.532 20.0894 33.307 20.0894 36.7176C20.0894 38.3406 20.778 39.8746 22.0285 41.0359C22.263 41.2543 22.6481 41.2585 22.8882 41.0463C23.1283 40.8341 23.134 40.4863 22.8995 40.2679C21.871 39.3136 21.3047 38.0529 21.3047 36.7186C21.3047 33.9136 23.8238 31.6323 26.9216 31.6323C27.8221 31.6323 28.6829 31.8207 29.4792 32.1891C29.7782 32.3289 30.1441 32.2212 30.2981 31.9511Z" fill="#1B344C"/>
<path fill-rule="evenodd" clip-rule="evenodd" d="M23.8805 42.4951C23.7614 42.8009 23.9461 43.1341 24.2901 43.2386C25.0656 43.4751 25.8776 43.595 26.7041 43.595C30.793 43.595 34.1199 40.6452 34.1199 37.0191C34.1199 35.6245 33.6337 34.2926 32.7148 33.1653C32.5008 32.9035 32.0876 32.8452 31.7934 33.0344C31.498 33.2236 31.4312 33.5898 31.6451 33.8516C32.4012 34.7765 32.8011 35.8731 32.8011 37.0191C32.8011 39.9996 30.065 42.4248 26.7029 42.4248C26.0234 42.4248 25.3561 42.3269 24.718 42.1322C24.374 42.0277 23.9996 42.1894 23.8805 42.4951Z" fill="#1B344C"/>
<path fill-rule="evenodd" clip-rule="evenodd" d="M26.5105 32.9233C24.3873 32.9233 22.6577 34.5331 22.6577 36.5111C22.6577 38.4903 24.3873 40.0989 26.5105 40.0989C28.6348 40.0989 30.3644 38.4903 30.3644 36.5111C30.3644 34.5331 28.6348 32.9233 26.5105 32.9233ZM26.5115 38.9238C25.0843 38.9238 23.9235 37.8422 23.9235 36.5132C23.9235 35.1843 25.0843 34.1038 26.5115 34.1038C27.9397 34.1038 29.1006 35.1843 29.1006 36.5132C29.1006 37.8422 27.9397 38.9238 26.5115 38.9238Z" fill="#1B344C"/>
<mask id="mask0" mask-type="alpha" maskUnits="userSpaceOnUse" x="30" y="14" width="22" height="19">
<path fill-rule="evenodd" clip-rule="evenodd" d="M30.5599 14H51.2323V32.8706H30.5599V14Z" fill="white"/>
</mask>
<g mask="url(#mask0)">
<path fill-rule="evenodd" clip-rule="evenodd" d="M38.4443 16.781C38.1116 16.8836 37.7882 17.0056 37.4763 17.148L35.9229 16.2025C35.3235 15.8388 34.5201 15.9111 34.0112 16.3752L33.1626 17.1502C32.6536 17.6143 32.5736 18.3483 32.9736 18.8944L34.0077 20.3127C33.8535 20.5977 33.7179 20.8934 33.6077 21.1967L31.7784 21.5303C31.0712 21.6598 30.5599 22.2297 30.5599 22.887V23.9826C30.5599 24.6389 31.0712 25.2088 31.7784 25.3383L33.6077 25.6729C33.7179 25.9751 33.8535 26.2709 34.0077 26.5569L32.9736 27.9741C32.5736 28.5203 32.6536 29.2542 33.1626 29.7184L34.0112 30.4933C34.5201 30.9586 35.3235 31.0309 35.9229 30.666L37.4763 29.7216C37.9064 29.917 38.3562 30.0746 38.8211 30.1933C39.1573 30.2786 39.5062 30.0994 39.6013 29.7928C39.6952 29.4852 39.4981 29.1657 39.1619 29.0805C38.6692 28.9552 38.1939 28.775 37.7487 28.5462C37.5412 28.4393 37.2862 28.4479 37.0879 28.5688L35.2203 29.7054C35.1218 29.7648 34.9896 29.7529 34.9061 29.6763L34.0575 28.9013C33.9741 28.8257 33.9602 28.7048 34.0262 28.6142L35.2702 26.9109C35.4035 26.7296 35.4128 26.4964 35.2957 26.3076C35.0453 25.9006 34.8482 25.4667 34.7102 25.0177C34.6465 24.8083 34.4587 24.6496 34.2256 24.6065L32.0253 24.2049C31.9094 24.1844 31.8259 24.0905 31.8259 23.9826V22.887C31.8259 22.7791 31.9094 22.6852 32.0253 22.6636L34.2256 22.2621C34.4587 22.2189 34.6465 22.0602 34.7114 21.8519C34.8482 21.4018 35.0453 20.9679 35.2957 20.5621C35.4128 20.3732 35.4035 20.139 35.2713 19.9587L34.0262 18.2544C33.9602 18.1648 33.9741 18.0439 34.0575 17.9673L34.9061 17.1923C34.9896 17.1156 35.1218 17.1049 35.2203 17.1642L37.0879 18.2997C37.2862 18.4206 37.5412 18.4292 37.7487 18.3224C38.1939 18.0946 38.6692 17.9144 39.1619 17.7881C39.3915 17.7298 39.5642 17.5593 39.6106 17.3456L40.0511 15.3379C40.0743 15.2322 40.1775 15.1555 40.2957 15.1555H41.4956C41.615 15.1555 41.717 15.2322 41.7402 15.3379L42.1807 17.3456C42.2271 17.5593 42.401 17.7298 42.6306 17.7881C43.1233 17.9144 43.5986 18.0946 44.0437 18.3235C44.2501 18.4292 44.5063 18.4206 44.7045 18.3008L46.571 17.1642C46.6695 17.1049 46.8029 17.1156 46.8863 17.1923L47.7338 17.9673C47.8184 18.0439 47.8312 18.1648 47.7662 18.2544L46.52 19.9587C46.389 20.139 46.3786 20.3732 46.4968 20.5621C46.7472 20.9679 46.9443 21.4018 47.0811 21.8519C47.1449 22.0602 47.3338 22.2189 47.5668 22.2621L49.766 22.6636C49.8831 22.6852 49.9666 22.7791 49.9666 22.887V23.9826C49.9666 24.0905 49.8831 24.1844 49.766 24.2049L47.5668 24.6065C47.3338 24.6496 47.1449 24.8083 47.0811 25.0177C46.9443 25.4678 46.7472 25.9017 46.4957 26.3076C46.3786 26.4964 46.389 26.7307 46.52 26.9109L47.7662 28.6152C47.8312 28.7048 47.8184 28.8257 47.7338 28.9024L46.8852 29.6763C46.8029 29.7529 46.6695 29.7648 46.571 29.7054L44.7045 28.5688C44.5063 28.4479 44.2501 28.4393 44.0426 28.5462C43.5986 28.775 43.1233 28.9552 42.6306 29.0805C42.401 29.1398 42.2271 29.3104 42.1796 29.5241L41.7402 31.5306C41.717 31.6375 41.615 31.7141 41.4956 31.7141H40.2957C40.1775 31.7141 40.0743 31.6375 40.0511 31.5306L40.0244 31.4087C39.956 31.0956 39.6222 30.8927 39.279 30.9553C38.937 31.0179 38.7156 31.3223 38.784 31.6353L38.8107 31.7584C38.9509 32.4028 39.5758 32.8701 40.2957 32.8701H41.4956C42.2167 32.8701 42.8404 32.4028 42.9818 31.7573L43.347 30.0875C43.6786 29.986 44.0032 29.863 44.3162 29.7216L45.8696 30.666C46.4678 31.0309 47.2724 30.9586 47.7802 30.4933L48.6299 29.7194C49.1377 29.2542 49.2177 28.5203 48.8189 27.9741L47.7825 26.5569C47.939 26.2709 48.0723 25.9751 48.1847 25.6729L50.0141 25.3383C50.7201 25.2088 51.2325 24.6389 51.2325 23.9826V22.887C51.2325 22.2297 50.7201 21.6598 50.0141 21.5303L48.1847 21.1967C48.0723 20.8934 47.939 20.5977 47.7825 20.3127L48.8189 18.8944C49.2177 18.3483 49.1377 17.6143 48.6299 17.1502L47.7802 16.3752C47.2724 15.9111 46.4667 15.8388 45.8696 16.2025L44.3162 17.148C44.0032 17.0056 43.6786 16.8836 43.347 16.781L42.9818 15.1113C42.8404 14.4669 42.2167 13.9995 41.4956 13.9995H40.2957C39.5758 13.9995 38.9509 14.4669 38.8107 15.1113L38.4443 16.781Z" fill="#1B344C"/>
</g>
<path fill-rule="evenodd" clip-rule="evenodd" d="M41.2338 20.9108C41.5451 20.9108 41.7985 20.6761 41.7985 20.3855C41.7985 20.0948 41.5451 19.8601 41.2338 19.8601C39.4892 19.8601 38.0716 21.1805 38.0716 22.8035C38.0716 24.4264 39.4892 25.7478 41.2338 25.7478C42.9774 25.7478 44.395 24.4264 44.395 22.8035C44.395 22.1463 44.1678 21.524 43.7367 21.0047C43.5463 20.775 43.1919 20.733 42.9448 20.9098C42.6977 21.0876 42.6525 21.4182 42.8428 21.6479C43.1204 21.9815 43.2655 22.381 43.2655 22.8035C43.2655 23.8472 42.3538 24.6961 41.2338 24.6961C40.1128 24.6961 39.201 23.8472 39.201 22.8035C39.201 21.7598 40.1128 20.9108 41.2338 20.9108Z" fill="#1B344C"/>
</svg>
