<svg width="65" height="65" viewBox="0 0 65 65" fill="none" xmlns="http://www.w3.org/2000/svg">
<circle cx="32.5" cy="32.5" r="32" fill="#FBE5FF" stroke="#9B9B9B" stroke-linecap="square" stroke-dasharray="4 4"/>
<g clip-path="url(#clip0)">
<path d="M24.7974 30.0612H18.3599C18.0386 30.0612 17.7781 30.3217 17.7781 30.6431C17.7781 30.9645 18.0386 31.225 18.3599 31.225H24.7974C25.1188 31.225 25.3793 30.9645 25.3793 30.6431C25.3793 30.3217 25.1188 30.0612 24.7974 30.0612Z" fill="#1B344C"/>
<path d="M24.7974 27.169H18.3599C18.0386 27.169 17.7781 27.4295 17.7781 27.7509C17.7781 28.0723 18.0386 28.3327 18.3599 28.3327H24.7974C25.1188 28.3327 25.3793 28.0723 25.3793 27.7509C25.3793 27.4295 25.1188 27.169 24.7974 27.169Z" fill="#1B344C"/>
<path d="M51.8598 39.0151C51.7566 39.0151 51.6654 38.9503 51.6328 38.8539C51.5221 38.5256 51.3878 38.2016 51.2338 37.8909C51.1882 37.7989 51.2065 37.688 51.2798 37.6147C51.8274 37.067 51.8274 36.176 51.2798 35.6282L49.9588 34.3073C49.4111 33.7598 48.5202 33.7596 47.9722 34.3076C47.8992 34.3806 47.7883 34.399 47.6963 34.3534C47.3855 34.1993 47.0614 34.065 46.7334 33.9543C46.6368 33.9217 46.572 33.8304 46.572 33.7272C46.572 32.9528 45.9419 32.3227 45.1674 32.3227H43.2992C42.5247 32.3227 41.8946 32.9528 41.8946 33.7272C41.8946 33.8304 41.8298 33.9217 41.7334 33.9543C41.4052 34.065 41.0812 34.1993 40.7704 34.3533C40.6784 34.3991 40.5675 34.3806 40.4942 34.3073C39.9466 33.7598 39.0556 33.7598 38.5079 34.3073L37.1868 35.6283C36.6393 36.176 36.6393 37.067 37.1871 37.6149C37.2601 37.6878 37.2785 37.7987 37.2329 37.8908C37.0789 38.2016 36.9447 38.5256 36.8339 38.8537C36.8013 38.9502 36.71 39.015 36.6068 39.015C35.8324 39.015 35.2023 39.6451 35.2023 40.4196V42.2878C35.2023 43.0622 35.8324 43.6923 36.6068 43.6923C36.71 43.6923 36.8012 43.7572 36.8338 43.8536C36.9446 44.1817 37.0789 44.5056 37.2329 44.8166C37.2785 44.9086 37.2601 45.0194 37.1869 45.0927C36.6379 45.6415 36.6379 46.5301 37.1869 47.0791L38.5079 48.4C39.0568 48.949 39.9451 48.9492 40.4944 48.3999C40.5674 48.3269 40.6784 48.3083 40.7704 48.3541C41.0812 48.508 41.4052 48.6423 41.7333 48.7531C41.8298 48.7857 41.8946 48.877 41.8946 48.9802C41.8946 49.7546 42.5247 50.3847 43.2992 50.3847H45.1674C45.9419 50.3847 46.572 49.7547 46.572 48.9802C46.572 48.877 46.6368 48.7857 46.7334 48.7531C47.0614 48.6423 47.3854 48.5081 47.6964 48.354C47.7883 48.3083 47.8992 48.3269 47.9724 48.4C48.5213 48.949 49.4098 48.9492 49.9588 48.4001L51.2798 47.0791C51.8286 46.5304 51.829 45.6418 51.2796 45.0926C51.2066 45.0196 51.1881 44.9087 51.2338 44.8166C51.3878 44.5059 51.522 44.1819 51.6328 43.8537C51.6654 43.7573 51.7567 43.6924 51.8598 43.6924C52.6343 43.6924 53.2644 43.0623 53.2644 42.2878V40.4197C53.2644 39.6452 52.6343 39.0151 51.8598 39.0151ZM52.1007 42.2878C52.1007 42.4206 51.9926 42.5286 51.8598 42.5286C51.257 42.5286 50.7226 42.9115 50.5302 43.4813C50.4361 43.7603 50.3219 44.0357 50.191 44.2999C49.9235 44.8397 50.0302 45.4888 50.4569 45.9156C50.5509 46.0096 50.551 46.162 50.4569 46.2561L49.1358 47.5772C49.0423 47.6708 48.89 47.6718 48.795 47.5769C48.3686 47.1503 47.7193 47.0437 47.1797 47.3112C46.9154 47.4422 46.6399 47.5562 46.361 47.6505C45.7912 47.8428 45.4083 48.3772 45.4083 48.9801C45.4083 49.1129 45.3003 49.2209 45.1675 49.2209H43.2992C43.1665 49.2209 43.0584 49.1129 43.0584 48.9801C43.0584 48.3772 42.6756 47.8429 42.1058 47.6505C41.8268 47.5562 41.5514 47.4421 41.2873 47.3113C41.0891 47.213 40.8761 47.1652 40.6648 47.1652C40.3007 47.1652 39.9416 47.3071 39.6715 47.5772C39.5779 47.6708 39.4255 47.6717 39.331 47.5771L38.0099 46.2561C37.9167 46.1629 37.9149 46.0106 38.0101 45.9153C38.4365 45.4889 38.5433 44.8397 38.2758 44.3C38.1448 44.0356 38.0307 43.7602 37.9365 43.4812C37.7441 42.9114 37.2097 42.5286 36.6069 42.5286C36.4742 42.5286 36.3661 42.4205 36.3661 42.2878V40.4196C36.3661 40.2868 36.4742 40.1788 36.6069 40.1788C37.2096 40.1788 37.744 39.7959 37.9365 39.226C38.0307 38.9471 38.1448 38.6717 38.2757 38.4075C38.5432 37.8675 38.4365 37.2183 38.0098 36.7918C37.916 36.6979 37.916 36.545 38.0098 36.4512L39.3308 35.1302C39.4248 35.0362 39.5776 35.0363 39.6716 35.1303C40.0981 35.5568 40.7472 35.6636 41.2871 35.396C41.5514 35.2651 41.8267 35.151 42.1058 35.0569C42.6756 34.8644 43.0583 34.33 43.0583 33.7272C43.0583 33.5944 43.1664 33.4864 43.2992 33.4864H45.1674C45.3002 33.4864 45.4082 33.5945 45.4082 33.7272C45.4082 34.33 45.7911 34.8643 46.361 35.0569C46.6399 35.151 46.9153 35.2652 47.1795 35.3961C47.7193 35.6635 48.3686 35.5568 48.7953 35.1302C48.8891 35.0362 49.042 35.0362 49.1358 35.1302L50.4568 36.4511C50.5507 36.545 50.5507 36.6979 50.4567 36.792C50.0302 37.2184 49.9235 37.8675 50.191 38.4076C50.3219 38.6716 50.436 38.947 50.5302 39.2261C50.7226 39.796 51.257 40.1788 51.8598 40.1788C51.9925 40.1788 52.1006 40.2868 52.1006 40.4196V42.2878H52.1007Z" fill="#1B344C"/>
<path d="M44.233 37.3842C42.0443 37.3842 40.2636 39.1649 40.2636 41.3536C40.2636 43.5424 42.0443 45.3231 44.233 45.3231C46.4218 45.3231 48.2025 43.5424 48.2025 41.3536C48.2025 39.1649 46.4218 37.3842 44.233 37.3842ZM44.233 44.1593C42.686 44.1593 41.4273 42.9006 41.4273 41.3536C41.4273 39.8066 42.686 38.548 44.233 38.548C45.7801 38.548 47.0387 39.8066 47.0387 41.3536C47.0387 42.9006 45.7801 44.1593 44.233 44.1593Z" fill="#1B344C"/>
<path d="M34.7875 46.1583C34.7874 46.1583 34.7873 46.1583 34.7873 46.1583L16.2059 46.1645C16.2057 46.1645 16.2056 46.1645 16.2054 46.1645C15.3767 46.1645 14.7058 45.4939 14.7058 44.6649V25.4916C14.7058 24.6647 15.3785 23.9919 16.2055 23.9919H34.1085C35.1479 23.9919 36.0986 23.3811 36.5308 22.4359L38.3474 18.462C38.5907 17.93 39.1261 17.586 39.7111 17.5859L47.9597 17.5845H47.96C48.7886 17.5845 49.4595 18.255 49.4596 19.0841L49.4609 32.2474C49.4609 32.5688 49.7214 32.8292 50.0428 32.8292C50.3642 32.8292 50.6247 32.5687 50.6246 32.2473L50.6233 19.0839C50.6231 17.6123 49.4323 16.4207 47.96 16.4207C47.9598 16.4207 47.9596 16.4207 47.9594 16.4207L39.7109 16.4221C38.6717 16.4224 37.7211 17.0331 37.289 17.9782L36.98 18.654L16.2062 18.6483C16.2059 18.6483 16.2057 18.6483 16.2055 18.6483C14.7337 18.6483 13.542 19.8392 13.542 21.3117V44.6649C13.542 46.1365 14.7328 47.3283 16.2053 47.3283H16.2062L34.7876 47.3221C35.109 47.322 35.3694 47.0614 35.3694 46.74C35.3692 46.4188 35.1088 46.1583 34.7875 46.1583ZM16.2055 19.812H16.2059L36.4481 19.8176L35.4723 21.9521C35.229 22.4843 34.6936 22.8282 34.1084 22.8282H16.2054C15.6496 22.8282 15.1332 22.9996 14.7057 23.2919V21.3117C14.7057 20.483 15.3764 19.812 16.2055 19.812Z" fill="#1B344C"/>
</g>
<defs>
<clipPath id="clip0">
<rect width="39.7222" height="39.7222" fill="white" transform="translate(13.542 13.5417)"/>
</clipPath>
</defs>
</svg>
