<svg width="65" height="65" viewBox="0 0 65 65" fill="none" xmlns="http://www.w3.org/2000/svg">
<circle cx="32.5" cy="32.5" r="32" fill="#D8F9B4" stroke="#9B9B9B" stroke-linecap="square" stroke-dasharray="4 4"/>
<rect x="25.1755" y="33.0956" width="7.25053" height="1.20837" fill="#1B344C"/>
<rect x="22.4366" y="38.5182" width="7.25053" height="1.20898" fill="#1B344C"/>
<rect x="25.1755" y="27.8877" width="15.8193" height="1.20886" fill="#1B344C"/>
<rect x="22.4366" y="22.5596" width="15.8192" height="1.20752" fill="#1B344C"/>
<rect x="25.1754" y="43.9536" width="4.61397" height="1.20825" fill="#1B344C"/>
<path fill-rule="evenodd" clip-rule="evenodd" d="M38.0191 50.5884H18.5845C18.2205 50.5884 17.9254 50.3183 17.9254 49.9852V17.4128C17.9254 16.0802 19.1058 15 20.562 15H45.6091C47.0652 15 48.2456 16.0802 48.2456 17.4128V19.8255C48.2456 20.1587 47.9505 20.4287 47.5865 20.4287H44.2908V32.2073C48.0613 33.0933 50.9905 35.8099 51.9084 39.2718C52.8264 42.7337 51.5834 46.3768 48.676 48.7456C45.7685 51.1145 41.6706 51.8231 38.0191 50.5884ZM41.6534 49.9851C46.7499 49.9851 50.8813 46.2043 50.8813 41.5405C50.8759 36.8787 46.7476 33.1008 41.6534 33.0958C36.557 33.0958 32.4255 36.8766 32.4255 41.5405C32.4255 46.2043 36.557 49.9851 41.6534 49.9851ZM46.9282 17.4149V19.2242H44.2917V17.4149C44.2917 16.7487 44.8819 16.2086 45.6099 16.2086C46.338 16.2086 46.9282 16.7487 46.9282 17.4149ZM20.562 16.2086C19.8339 16.2086 19.2437 16.7487 19.2437 17.415V49.3839H35.5296C31.5962 46.8208 30.0717 42.138 31.8311 38.0229C33.5905 33.9079 38.1828 31.4151 42.9726 31.9753V17.415C42.9753 16.9902 43.1018 16.5738 43.339 16.2086H20.562Z" fill="#1B344C"/>
<rect x="22.5389" y="27.8877" width="1.3183" height="1.20862" fill="#1B344C"/>
<rect x="22.5389" y="33.0956" width="1.3183" height="1.20837" fill="#1B344C"/>
<rect x="22.5389" y="43.9536" width="1.3183" height="1.20825" fill="#1B344C"/>
<path d="M41.8303 47.1249C41.5128 47.1249 41.1954 47.0125 40.954 46.7862L37.2337 43.3225C36.7492 42.8715 36.7492 42.1403 37.2337 41.6892C37.7181 41.2382 38.5035 41.2382 38.988 41.6892L41.832 44.337L44.6759 41.6892C45.1604 41.2382 45.9458 41.2382 46.4302 41.6892C46.9147 42.1403 46.9147 42.8715 46.4302 43.3225L42.7099 46.7862C42.4652 47.0125 42.1478 47.1249 41.8303 47.1249Z" fill="#1B344C"/>
<path d="M41.8311 46.3549C41.1466 46.3549 40.591 45.8376 40.591 45.2003V37.5029C40.591 36.8655 41.1466 36.3483 41.8311 36.3483C42.5157 36.3483 43.0712 36.8655 43.0712 37.5029V45.2003C43.0712 45.8376 42.5157 46.3549 41.8311 46.3549Z" fill="#1B344C"/>
</svg>
