<svg width="65" height="65" viewBox="0 0 65 65" fill="none" xmlns="http://www.w3.org/2000/svg">
<circle cx="32.5" cy="32.5" r="32" fill="#D8F9B4" stroke="#9B9B9B" stroke-linecap="square" stroke-dasharray="4 4"/>
<mask id="mask0" mask-type="alpha" maskUnits="userSpaceOnUse" x="27" y="11" width="26" height="37">
<path fill-rule="evenodd" clip-rule="evenodd" d="M27.764 11.0002H52.5102V47.9998H27.764V11.0002Z" fill="white"/>
</mask>
<g mask="url(#mask0)">
<path fill-rule="evenodd" clip-rule="evenodd" d="M42.6107 34.4501C42.4835 34.6354 42.3007 34.6783 42.2035 34.6877C42.1052 34.6972 41.9182 34.6898 41.7557 34.5328L40.2853 33.1017L44.0939 29.8625L45.0899 30.832L42.6107 34.4501ZM39.3561 32.2485L35.821 29.2398V28.0547C36.848 28.6902 38.0641 29.0545 39.3561 29.0545C40.6471 29.0545 41.8643 28.6902 42.8923 28.0547V29.2398L39.3561 32.2485ZM38.7505 35.3531L38.789 34.5004L39.3554 33.9487L39.9207 34.5004L39.9603 35.3531H38.7505ZM36.9517 34.5328C36.7903 34.6898 36.6022 34.6972 36.505 34.6877C36.4067 34.6783 36.2239 34.6354 36.0978 34.4501L33.6174 30.832L34.6156 29.8625L38.4222 33.1017L36.9517 34.5328ZM34.1243 23.5819C34.011 22.9872 33.4446 22.5549 32.8333 22.5988C32.7853 22.602 32.735 22.5988 32.6848 22.5884C32.4315 22.5392 32.2402 22.2785 32.2402 21.9843V21.5394C32.2402 21.2526 32.4369 20.9929 32.6901 20.95C32.9028 20.9134 33.1058 20.9898 33.2362 21.1531C33.3527 21.3018 33.5077 21.4075 33.6861 21.4598C33.948 21.5363 34.2354 21.4912 34.4566 21.3395C34.8552 21.0662 35.2058 20.7323 35.5018 20.346C35.7112 20.0717 35.6525 19.6833 35.3703 19.4792C35.0882 19.275 34.6885 19.3326 34.4791 19.6069C34.3316 19.7995 34.166 19.9733 33.9832 20.1282C33.7802 19.9607 33.5451 19.8393 33.2918 19.7691C33.1283 19.1599 32.8365 17.8534 32.8365 16.2778C32.8365 15.3283 33.1379 14.6614 33.7299 14.2961C34.1937 14.0103 34.6832 13.9988 34.6832 13.9977C34.8456 13.9977 35.0049 13.936 35.1224 13.8271C35.1384 13.8135 36.7051 12.3992 39.3864 12.2589C41.8421 12.1291 43.739 12.7321 44.8686 14.0019C46.0088 15.2822 46.3882 17.2462 45.9757 19.7053C45.8058 19.699 45.6188 19.7116 45.4339 19.7419L44.8344 18.3443C44.7125 18.0585 44.392 17.9047 44.0852 17.9832C44.0254 17.9978 38.1414 19.4478 35.6738 16.461C35.4537 16.1951 35.0529 16.1522 34.7783 16.3668C34.5037 16.5804 34.4598 16.9708 34.68 17.2378C37.2009 20.2873 42.1991 19.6236 43.864 19.3001L44.3257 20.3816C44.5255 20.8464 45.0353 21.1008 45.5365 20.9846C45.7427 20.9375 45.9394 20.9364 46.0142 20.9511C46.2717 21.0003 46.4651 21.2505 46.4651 21.5321V21.9843C46.4651 22.2785 46.2749 22.5392 46.0206 22.5884C45.9714 22.5988 45.9212 22.602 45.8731 22.5988C45.2608 22.5559 44.6944 22.9872 44.5832 23.5819C44.1184 26.0357 41.9201 27.8175 39.3532 27.8175C36.7863 27.8175 34.587 26.0357 34.1243 23.5819ZM46.3422 30.2962L44.5735 28.5762C44.4592 28.4663 44.3138 28.4066 44.1642 28.3961V27.0279C44.9978 26.1632 45.592 25.0692 45.8313 23.835C45.9788 23.8423 46.1295 23.8297 46.278 23.8015C47.1266 23.6319 47.741 22.8676 47.741 21.982V21.5308C47.741 21.0178 47.5284 20.5488 47.18 20.2128C47.7432 17.2366 47.2794 14.812 45.8345 13.1883C44.4357 11.618 42.1829 10.8685 39.32 11.0192C36.674 11.1574 34.9674 12.3414 34.4255 12.7738C34.1295 12.8083 33.6251 12.9099 33.1143 13.2072C32.4068 13.6207 31.5626 14.4885 31.5626 16.2755C31.5626 17.8343 31.8191 19.1356 32.005 19.8747C31.3831 20.1688 30.9674 20.8074 30.9674 21.5371V21.982C30.9674 22.8676 31.5829 23.6319 32.4304 23.8004C32.5778 23.8297 32.7285 23.8423 32.8771 23.835C33.1164 25.0692 33.7106 26.1632 34.5431 27.0279V28.3961C34.3946 28.4066 34.2481 28.4663 34.1338 28.5762L32.3652 30.2962L28.8952 31.5975C28.5949 31.7105 28.3085 31.856 28.0424 32.0319C27.7528 32.2245 27.6759 32.6098 27.8747 32.8924C27.9976 33.0683 28.1985 33.1636 28.4015 33.1636C28.5244 33.1636 28.6505 33.129 28.7595 33.0568C28.9444 32.9343 29.1442 32.8328 29.3537 32.7542L32.5736 31.5462L35.0357 35.138C35.3414 35.5829 35.8308 35.8676 36.378 35.921C36.44 35.9273 36.4998 35.9294 36.5607 35.9294C36.8781 35.9294 37.1848 35.8488 37.4573 35.6991L36.9294 47.3528C36.9134 47.6951 37.1859 47.9841 37.5375 47.9998C37.5471 47.9998 37.5567 47.9998 37.5653 47.9998C37.9051 47.9998 38.1872 47.7401 38.2022 47.4072L38.6927 36.59H40.0146L40.5051 47.4072C40.5212 47.7401 40.8033 47.9998 41.1421 47.9998C41.1517 47.9998 41.1613 47.9998 41.1699 47.9998C41.5214 47.9841 41.7939 47.6951 41.779 47.3528L41.2511 35.6991C41.5225 35.8488 41.8303 35.9294 42.1466 35.9294C42.2075 35.9294 42.2695 35.9273 42.3293 35.921C42.8776 35.8676 43.3659 35.5829 43.6716 35.138L46.1338 31.5462L49.3547 32.7542C49.8046 32.9238 50.1947 33.1939 50.5003 33.531L48.2967 35.6729C47.5006 36.4465 47.0624 37.4767 47.0624 38.5706V47.3811C47.0624 47.7223 47.3488 47.9998 47.7004 47.9998C48.052 47.9998 48.3363 47.7223 48.3363 47.3811V38.5706C48.3363 37.8075 48.643 37.0893 49.1976 36.5491L51.1319 34.669C51.2088 34.9464 51.2452 35.2374 51.2323 35.5347L50.7397 47.3559C50.7258 47.6972 50.9994 47.9861 51.351 47.9998C51.3595 47.9998 51.3681 47.9998 51.3766 47.9998C51.7175 47.9998 51.9986 47.7391 52.0135 47.4051L52.5073 35.585C52.5789 33.8315 51.4963 32.2298 49.8121 31.5975L46.3422 30.2962Z" fill="#1B344C"/>
<path fill-rule="evenodd" clip-rule="evenodd" d="M33.6533 37.7931C33.2782 37.7931 32.9726 38.0794 32.9726 38.4317C32.9726 38.7851 33.2782 39.0714 33.6533 39.0714H36.2C36.5761 39.0714 36.8807 38.7851 36.8807 38.4317C36.8807 38.0794 36.5761 37.7931 36.2 37.7931H33.6533Z" fill="#1B344C"/>
</g>
<mask id="mask1" mask-type="alpha" maskUnits="userSpaceOnUse" x="10" y="11" width="23" height="37">
<path fill-rule="evenodd" clip-rule="evenodd" d="M10.832 11H32.9736V48H10.832V11Z" fill="white"/>
</mask>
<g mask="url(#mask1)">
<path fill-rule="evenodd" clip-rule="evenodd" d="M24.476 37.1646L22.8154 35.7502L25.3865 33.1852L26.3419 34.14L24.476 37.1646ZM21.9032 34.9104L19.6205 32.6314V31.35C20.3333 31.6212 21.1028 31.7688 21.9032 31.7688C22.7026 31.7688 23.4731 31.6212 24.1859 31.35V32.6314L21.9032 34.9104ZM19.3298 37.1646L17.4639 34.14L18.4193 33.1852L20.9884 35.7502L19.3298 37.1646ZM16.8095 26.2947C16.7005 25.699 16.147 25.2677 15.5528 25.3117C15.5004 25.3148 15.4459 25.3106 15.3903 25.2981C15.1542 25.2415 14.9757 24.983 14.9757 24.6972V24.2523C14.9757 23.9644 15.1681 23.7058 15.4139 23.6629C15.6212 23.6262 15.8189 23.7027 15.945 23.8649C16.0583 24.0136 16.2111 24.1204 16.3842 24.1717C16.6385 24.2491 16.9185 24.2041 17.1344 24.0523C17.5159 23.7822 17.8547 23.4546 18.1379 23.0756C18.3441 22.8024 18.2886 22.414 18.015 22.2088C17.7403 22.0036 17.3513 22.0591 17.1462 22.3323C17.0051 22.5197 16.8459 22.6893 16.6717 22.8401C16.4066 22.6139 16.0818 22.4716 15.7355 22.4286C15.6169 21.9628 15.556 21.4844 15.556 21.0049C15.556 17.6707 18.4029 14.9583 21.9028 14.9583C25.4016 14.9583 28.2485 17.6707 28.2485 21.0049C28.2485 21.4844 28.1887 21.9607 28.069 22.4265C27.9065 22.4391 27.7409 22.4653 27.587 22.5061L27.1211 22.123C26.886 21.9303 26.591 21.834 26.2918 21.8518C25.3802 21.9052 20.7091 22.0287 18.3121 19.1645C18.0919 18.9028 17.7008 18.8672 17.4379 19.086C17.175 19.3059 17.1408 19.6963 17.3599 19.9591C18.5418 21.3724 20.2752 22.3271 22.5119 22.7982C24.2261 23.1593 25.7478 23.1237 26.3441 23.0903L27.073 23.687C27.2728 23.8524 27.5539 23.8754 27.7783 23.7445C27.883 23.687 28.2357 23.6325 28.3896 23.6639C28.6396 23.7131 28.8288 23.9633 28.8288 24.2449V24.6972C28.8288 24.983 28.6503 25.2415 28.4152 25.2981C28.3596 25.3106 28.3051 25.3148 28.2517 25.3117C27.6586 25.2677 27.105 25.699 26.995 26.2947C26.545 28.7485 24.4024 30.5303 21.9028 30.5303C19.4032 30.5303 17.2605 28.7485 16.8095 26.2947ZM21.9032 12.2401C23.223 12.2401 24.3366 13.0834 24.6668 14.2245C23.8097 13.9015 22.8779 13.7232 21.9032 13.7232C20.9286 13.7232 19.9968 13.9015 19.1397 14.2245C19.4688 13.0834 20.5824 12.2401 21.9032 12.2401ZM27.4813 33.5244L25.8248 31.8703C25.7137 31.7593 25.5705 31.7007 25.4262 31.6903V30.7156C26.8411 29.7871 27.8777 28.3099 28.2101 26.5501C28.3725 26.5575 28.5382 26.5418 28.6995 26.503C29.4935 26.3156 30.0695 25.5556 30.0695 24.6972V24.2449C30.0695 23.6179 29.7575 23.0526 29.2745 22.7218C29.4177 22.1596 29.4893 21.5838 29.4893 21.0049C29.4893 18.438 28.1 16.1768 26.0054 14.8786C25.983 12.7368 24.1513 11 21.9028 11C19.6533 11 17.8216 12.7368 17.7992 14.8786C15.7046 16.1768 14.3153 18.438 14.3153 21.0049C14.3153 21.5817 14.388 22.1564 14.528 22.7165C14.045 23.0463 13.734 23.6137 13.734 24.2523V24.6972C13.734 25.5556 14.3111 26.3156 15.104 26.503C15.2675 26.5418 15.431 26.5575 15.5945 26.5501C15.928 28.3099 16.9635 29.7871 18.3795 30.7156V31.6903C18.2341 31.7007 18.0909 31.7593 17.9809 31.8703L16.3234 33.5244L13.2937 34.8455C11.7527 35.5166 10.7642 37.0963 10.8347 38.7744L11.2023 47.4068C11.2162 47.7398 11.4909 48.0004 11.8211 48.0004C11.8307 48.0004 11.8393 48.0004 11.8489 47.9994C12.1908 47.9847 12.4569 47.6958 12.442 47.3535L12.0754 38.721C12.0519 38.1651 12.1973 37.6249 12.4698 37.1612L14.0973 39.1125C14.6124 39.7291 14.8956 40.5111 14.8956 41.313V47.3807C14.8956 47.722 15.1735 48.0004 15.5165 48.0004C15.8596 48.0004 16.1363 47.722 16.1363 47.3807V41.313C16.1363 40.2212 15.7516 39.1586 15.0517 38.319L13.3204 36.2452C13.4668 36.1426 13.6239 36.0536 13.7906 35.9803L16.4313 34.8298L18.2972 37.8542C18.4821 38.1526 18.7866 38.3557 19.1329 38.409C19.1959 38.4195 19.2579 38.4247 19.321 38.4247C19.6042 38.4247 19.8799 38.3242 20.0989 38.1369L21.2819 37.1298V47.3807C21.2819 47.722 21.5598 48.0004 21.9028 48.0004C22.2448 48.0004 22.5237 47.722 22.5237 47.3807V37.1298L23.7057 38.1379C23.9247 38.3242 24.2005 38.4247 24.4847 38.4247C24.5467 38.4247 24.6098 38.4195 24.6728 38.4101C25.0191 38.3556 25.3236 38.1526 25.5085 37.8542L27.3744 34.8298L30.015 35.9814C30.1818 36.0536 30.3378 36.1436 30.4853 36.2452L28.754 38.319C28.0541 39.1586 27.6683 40.2212 27.6683 41.313V47.3807C27.6683 47.722 27.9461 48.0004 28.2881 48.0004C28.6322 48.0004 28.909 47.722 28.909 47.3807V41.313C28.909 40.5111 29.1932 39.7291 29.7083 39.1125L31.3359 37.1612C31.6084 37.6249 31.7538 38.1651 31.7292 38.721L31.3626 47.3535C31.3487 47.6958 31.6148 47.9847 31.9568 47.9994C31.9664 48.0004 31.975 48.0004 31.9835 48.0004C32.3148 48.0004 32.5895 47.7398 32.6023 47.4068L32.9699 38.7744C33.0415 37.0963 32.053 35.5166 30.5109 34.8455L27.4813 33.5244Z" fill="#1B344C"/>
<path fill-rule="evenodd" clip-rule="evenodd" d="M18.1574 41.6208C17.7085 41.6208 17.3441 41.9069 17.3441 42.259C17.3441 42.6121 17.7085 42.8982 18.1574 42.8982H20.439C20.8878 42.8982 21.2522 42.6121 21.2522 42.259C21.2522 41.9069 20.8878 41.6208 20.439 41.6208H18.1574Z" fill="#1B344C"/>
</g>
</svg>
