<svg width="65" height="65" viewBox="0 0 65 65" fill="none" xmlns="http://www.w3.org/2000/svg">
<circle cx="32.5" cy="32.4999" r="32" fill="#FFFCCE" stroke="#9B9B9B" stroke-linecap="square" stroke-dasharray="4 4"/>
<mask id="mask0" mask-type="alpha" maskUnits="userSpaceOnUse" x="12" y="22" width="30" height="29">
<path fill-rule="evenodd" clip-rule="evenodd" d="M12.6385 22.7515H41.9484V50.4945H12.6385V22.7515Z" fill="white"/>
</mask>
<g mask="url(#mask0)">
<path fill-rule="evenodd" clip-rule="evenodd" d="M29.5596 49.2388L24.2691 45.7454L31.4444 42.6663H34.6273L29.5596 49.2388ZM19.3958 42.6663H28.7446L21.0505 45.9688L19.3958 42.6663ZM41.3798 41.6156H13.7736V23.8026H18.2451C18.5579 23.8026 18.8131 23.5674 18.8131 23.2771C18.8131 22.9867 18.5579 22.7515 18.2451 22.7515H13.2057C12.8919 22.7515 12.6377 22.9867 12.6377 23.2771V42.1403C12.6377 42.4306 12.8919 42.6659 13.2057 42.6659H18.1437L20.2586 46.887C20.3883 47.1465 20.7314 47.2626 21.0128 47.1416L23.0838 46.254L29.3617 50.3987C29.6137 50.5652 29.9736 50.5091 30.1524 50.2758L36.0203 42.6659H41.3798C41.6936 42.6659 41.9478 42.4306 41.9478 42.1403C41.9478 41.8509 41.6936 41.6156 41.3798 41.6156Z" fill="#1B344C"/>
</g>
<mask id="mask1" mask-type="alpha" maskUnits="userSpaceOnUse" x="19" y="14" width="33" height="29">
<path fill-rule="evenodd" clip-rule="evenodd" d="M19.9485 14.9238H51.3399V42.6667H19.9485V40.4595V14.9238Z" fill="white"/>
</mask>
<g mask="url(#mask1)">
<path fill-rule="evenodd" clip-rule="evenodd" d="M34.4192 16.1827L39.7097 19.6765L32.5354 22.7559H29.3515L34.4192 16.1827ZM44.5833 22.7522H35.2344L42.9286 19.45L44.5833 22.7522ZM50.7722 22.7513H45.8341L43.7202 18.5302C43.5895 18.2717 43.2454 18.1546 42.9661 18.2756L40.894 19.1632L34.6161 15.0185C34.3651 14.852 34.0053 14.9082 33.8254 15.1414L27.9575 22.7513H20.5165C20.2027 22.7513 19.9485 22.9865 19.9485 23.2769C19.9485 23.5663 20.2027 23.8015 20.5165 23.8015H28.2493H28.2504H45.4702H45.4722H45.4743H50.2042V41.6144H43.6512C43.3374 41.6144 43.0833 41.8496 43.0833 42.1399C43.0833 42.4303 43.3374 42.6655 43.6512 42.6655H50.7722C51.0859 42.6655 51.3401 42.4303 51.3401 42.1399V23.2769C51.3401 22.9865 51.0859 22.7513 50.7722 22.7513Z" fill="#1B344C"/>
</g>
<path fill-rule="evenodd" clip-rule="evenodd" d="M31.9893 28.7534C34.3511 28.7534 36.2726 30.5315 36.2726 32.7172C36.2726 34.9028 34.3511 36.6799 31.9893 36.6799C29.6275 36.6799 27.7061 34.9028 27.7061 32.7172C27.7061 30.5315 29.6275 28.7534 31.9893 28.7534ZM31.9892 37.7297C34.9765 37.7297 37.4073 35.4803 37.4073 32.7159C37.4073 29.9506 34.9765 27.7021 31.9892 27.7021C29.0019 27.7021 26.5711 29.9506 26.5711 32.7159C26.5711 35.4803 29.0019 37.7297 31.9892 37.7297Z" fill="#1B344C"/>
<path fill-rule="evenodd" clip-rule="evenodd" d="M27.1839 40.0913H44.4779C44.7917 40.0913 45.0448 39.8561 45.0448 39.5667C45.0448 38.2435 46.4862 36.9455 47.9547 36.9455C48.2685 36.9455 48.5227 36.7103 48.5227 36.4199V28.9978C48.5227 28.7074 48.2685 28.4722 47.9547 28.4722C46.4862 28.4722 45.0448 27.1742 45.0448 25.851C45.0448 25.5607 44.7917 25.3264 44.4779 25.3264H19.1927C18.8799 25.3264 18.6247 25.5607 18.6247 25.851C18.6247 27.2545 17.4104 28.4858 16.0244 28.4858C15.7107 28.4858 15.4565 28.721 15.4565 29.0113V36.4054C15.4565 36.6958 15.7107 36.931 16.0244 36.931C17.4104 36.931 18.6247 38.1622 18.6247 39.5657C18.6247 39.8561 18.8799 40.0913 19.1927 40.0913H24.9131C25.2269 40.0913 25.481 39.8561 25.481 39.5657C25.481 39.2753 25.2269 39.0411 24.9131 39.0411H19.7188C19.6006 38.3035 19.2397 37.5902 18.6885 37.0249C18.107 36.4286 17.3779 36.0492 16.5924 35.9253V29.4924C17.3779 29.3685 18.107 28.9881 18.6885 28.3928C19.2397 27.8276 19.6006 27.1132 19.7188 26.3766H43.9602C44.2457 27.8866 45.7226 29.2233 47.3868 29.4789V35.9379C45.7226 36.1934 44.2457 37.5302 43.9602 39.0411H27.1839C26.8701 39.0411 26.6159 39.2753 26.6159 39.5657C26.6159 39.8561 26.8701 40.0913 27.1839 40.0913Z" fill="#1B344C"/>
</svg>
