<svg width="15" height="14" viewBox="0 0 15 14" fill="none" xmlns="http://www.w3.org/2000/svg">
<path d="M10.6427 8.80503H10.0327L9.81651 8.58891C10.5732 7.67639 11.0287 6.49171 11.0287 5.20297C11.0287 2.32933 8.78187 0 6.00995 0C3.23803 0 0.99115 2.32933 0.99115 5.20297C0.99115 8.07662 3.23803 10.4059 6.00995 10.4059C7.25307 10.4059 8.39581 9.93368 9.27603 9.14923L9.4845 9.37336V10.0057L13.3451 14L14.4956 12.8073L10.6427 8.80503ZM6.00995 8.80503C4.08736 8.80503 2.5354 7.19611 2.5354 5.20297C2.5354 3.20983 4.08736 1.60091 6.00995 1.60091C7.93253 1.60091 9.4845 3.20983 9.4845 5.20297C9.4845 7.19611 7.93253 8.80503 6.00995 8.80503Z" fill="#9B9B9B"/>
<path d="M10.6427 8.80503H10.0327L9.81651 8.58891C10.5732 7.67639 11.0287 6.49171 11.0287 5.20297C11.0287 2.32933 8.78187 0 6.00995 0C3.23803 0 0.99115 2.32933 0.99115 5.20297C0.99115 8.07662 3.23803 10.4059 6.00995 10.4059C7.25307 10.4059 8.39581 9.93368 9.27603 9.14923L9.4845 9.37336V10.0057L13.3451 14L14.4956 12.8073L10.6427 8.80503ZM6.00995 8.80503C4.08736 8.80503 2.5354 7.19611 2.5354 5.20297C2.5354 3.20983 4.08736 1.60091 6.00995 1.60091C7.93253 1.60091 9.4845 3.20983 9.4845 5.20297C9.4845 7.19611 7.93253 8.80503 6.00995 8.80503Z" fill="#9B9B9B"/>
</svg>
